<?xml version="1.0" encoding="UTF-8"?>
<svg version="1.1" xmlns="http://www.w3.org/2000/svg" width="2048" height="645">
<path d="M0 0 C675.84 0 1351.68 0 2048 0 C2048 212.85 2048 425.7 2048 645 C1372.16 645 696.32 645 0 645 C0 432.15 0 219.3 0 0 Z " fill="#FEFEFE" transform="translate(0,0)"/>
<path d="M0 0 C1.20355637 -0.0230294 1.20355637 -0.0230294 2.431427 -0.04652405 C26.8744566 -0.42679475 50.93811637 0.32771238 72.53173828 13.2421875 C74.38663443 14.34813705 76.26818962 15.39251158 78.16015625 16.43359375 C87.09506711 21.44974348 94.76545554 27.41112059 102.3203125 34.30859375 C103.10792969 35.00210938 103.89554688 35.695625 104.70703125 36.41015625 C116.74721196 47.60730815 127.27768646 63.74570879 132.58203125 79.30078125 C133.49878898 81.79397424 134.62499379 84.15605981 135.7578125 86.55859375 C139.89753606 95.57371465 142.48362147 104.59404723 144.3203125 114.30859375 C144.4855542 115.16251709 144.6507959 116.01644043 144.82104492 116.89624023 C148.83473825 137.8910948 150.49227663 158.39748044 150.5078125 179.74609375 C150.50890015 180.54798126 150.50998779 181.34986877 150.5111084 182.17605591 C150.50698707 208.99180876 148.46160798 235.02701553 140.16601562 260.65844727 C139.32008989 263.30929133 138.5349995 265.97282669 137.7578125 268.64453125 C136.68658437 272.23719456 135.43980061 275.60658819 133.8203125 278.99609375 C132.45541448 281.87900334 131.13873891 284.74710156 129.91796875 287.6953125 C128.26427627 291.43532605 126.36531699 294.93766492 124.2578125 298.43359375 C123.67507568 299.40147827 123.67507568 299.40147827 123.08056641 300.38891602 C118.96811553 307.08209783 114.27602814 313.22393787 109.3203125 319.30859375 C108.72605469 320.05753906 108.13179687 320.80648438 107.51953125 321.578125 C87.97886601 345.2227963 58.57670686 357.13201878 29.20532227 361.9230957 C27.24200821 362.23985528 27.24200821 362.23985528 25.3203125 363.30859375 C17.38180838 364.57938196 9.21141989 364.44149146 1.1953125 364.49609375 C0.18259277 364.50906494 -0.83012695 364.52203613 -1.87353516 364.53540039 C-7.61093895 364.54240064 -12.87897794 364.05897231 -18.47753906 362.80102539 C-21.29644596 362.17067781 -24.12894522 361.80524639 -26.9921875 361.43359375 C-51.08123209 357.71892799 -74.41714922 344.38949657 -88.9921875 324.68359375 C-89.82169922 323.45769531 -89.82169922 323.45769531 -90.66796875 322.20703125 C-93.08042744 319.56493893 -93.08042744 319.56493893 -99.6796875 319.30859375 C-99.6796875 378.70859375 -99.6796875 438.10859375 -99.6796875 499.30859375 C-128.7196875 499.30859375 -157.7596875 499.30859375 -187.6796875 499.30859375 C-187.6796875 336.61859375 -187.6796875 173.92859375 -187.6796875 6.30859375 C-158.6396875 6.30859375 -129.5996875 6.30859375 -99.6796875 6.30859375 C-99.6796875 21.48859375 -99.6796875 36.66859375 -99.6796875 52.30859375 C-97.3696875 52.30859375 -95.0596875 52.30859375 -92.6796875 52.30859375 C-90.80896947 50.44131232 -90.80896947 50.44131232 -89.6171875 47.74609375 C-79.98628759 31.07970347 -62.83631605 16.06388569 -44.6796875 9.30859375 C-43.3596875 9.30859375 -42.0396875 9.30859375 -40.6796875 9.30859375 C-40.6796875 8.64859375 -40.6796875 7.98859375 -40.6796875 7.30859375 C-39.6690625 7.06109375 -38.6584375 6.81359375 -37.6171875 6.55859375 C-34.77249927 5.85501428 -31.94869232 5.10536102 -29.125 4.3203125 C-28.16799194 4.05589355 -28.16799194 4.05589355 -27.19165039 3.78613281 C-25.31269615 3.26562601 -23.43560409 2.73841124 -21.55859375 2.2109375 C-14.44763651 0.5567269 -7.28284919 0.13669967 0 0 Z " fill="#010101" transform="translate(1676.6796875,138.69140625)"/>
<path d="M0 0 C0.80926437 -0.00807175 1.61852875 -0.01614349 2.45231628 -0.02445984 C4.16081664 -0.0382135 5.86934346 -0.04897412 7.57788086 -0.05688477 C9.28499706 -0.06830952 10.99208031 -0.08860712 12.69897461 -0.1184082 C42.5657844 -0.63760398 72.62208811 8.21663587 95.35546875 28.23828125 C96.56009766 29.26501953 96.56009766 29.26501953 97.7890625 30.3125 C110.77816383 41.64089431 119.82405386 54.49470983 128.16796875 69.42578125 C128.63638184 70.25706543 129.10479492 71.08834961 129.58740234 71.94482422 C132.12760363 76.57598323 134.14113068 81.08843867 135.69995117 86.13549805 C136.2953623 88.04547051 136.99955373 89.92067565 137.71484375 91.7890625 C146.97211543 116.3041184 150.44745758 143.19668102 150.35546875 169.23828125 C150.37671568 170.96879641 150.40126527 172.69927532 150.4296875 174.4296875 C150.49489555 179.36833928 150.44130082 184.30019769 150.35546875 189.23828125 C150.34290039 190.21023438 150.33033203 191.1821875 150.31738281 192.18359375 C150.02457942 211.25764354 148.8856026 230.87540089 143.35546875 249.23828125 C143.10382998 250.85995332 142.87349052 252.48512181 142.66796875 254.11328125 C141.39150281 261.51678371 138.27511852 268.19029792 135.28881836 275.03393555 C134.2901726 277.39249493 133.37769827 279.77648964 132.4609375 282.16796875 C130.41317034 287.31357673 127.85216481 292.03568609 125.04296875 296.80078125 C124.55586426 297.632146 124.06875977 298.46351074 123.56689453 299.32006836 C120.20887483 304.97483107 116.7189962 310.30009282 112.35546875 315.23828125 C111.24171875 316.51251953 111.24171875 316.51251953 110.10546875 317.8125 C106.31621996 322.08163721 102.49546386 326.30528589 98.35546875 330.23828125 C97.77023437 330.81835938 97.185 331.3984375 96.58203125 331.99609375 C90.3632763 337.89119602 83.43865783 342.0643328 76.03417969 346.2734375 C74.66969512 347.05767878 73.32558295 347.8772863 71.98828125 348.70703125 C59.01655968 356.58091672 44.00153212 359.44495176 29.24047852 361.8527832 C27.27716446 362.16954278 27.27716446 362.16954278 25.35546875 363.23828125 C22.44252187 363.36242052 19.55464663 363.42681548 16.640625 363.44140625 C15.75628281 363.44710632 14.87194061 363.4528064 13.96080017 363.4586792 C12.07519733 363.46814903 10.18957778 363.47467101 8.30395508 363.47851562 C5.48812235 363.48804386 2.67307742 363.51896874 -0.14257812 363.55078125 C-15.87571842 363.64530404 -31.65739619 362.65578249 -46.39453125 356.67578125 C-47.2652124 356.33135986 -48.13589355 355.98693848 -49.03295898 355.63208008 C-65.7709669 348.71550971 -79.94551263 337.10755698 -90.4140625 322.35546875 C-92.99188886 319.4994219 -92.99188886 319.4994219 -99.64453125 319.23828125 C-99.64453125 378.63828125 -99.64453125 438.03828125 -99.64453125 499.23828125 C-128.68453125 499.23828125 -157.72453125 499.23828125 -187.64453125 499.23828125 C-187.64453125 336.54828125 -187.64453125 173.85828125 -187.64453125 6.23828125 C-158.60453125 6.23828125 -129.56453125 6.23828125 -99.64453125 6.23828125 C-99.64453125 21.41828125 -99.64453125 36.59828125 -99.64453125 52.23828125 C-97.33453125 52.56828125 -95.02453125 52.89828125 -92.64453125 53.23828125 C-92.37769531 52.49964844 -92.11085938 51.76101562 -91.8359375 51 C-83.3051987 31.22546777 -59.97577777 15.20275481 -40.64453125 7.23828125 C-36.68456114 6.01306857 -32.6936721 5.11419643 -28.64453125 4.23828125 C-25.63677 3.46389496 -22.6328166 2.67588164 -19.62890625 1.88671875 C-13.10390451 0.46898277 -6.65318253 0.06533863 0 0 Z " fill="#010101" transform="translate(1304.64453125,138.76171875)"/>
<path d="M0 0 C0.95938477 0.20931152 1.91876953 0.41862305 2.90722656 0.63427734 C15.40416176 3.41509143 27.32308628 6.68999671 39 12 C40.03761475 12.46043701 40.03761475 12.46043701 41.09619141 12.93017578 C54.2906712 18.79536314 65.94017692 25.62816263 77 35 C77.80050781 35.67675781 78.60101562 36.35351562 79.42578125 37.05078125 C101.93565303 56.68858008 119.41486139 83.21661577 126.1875 112.5390625 C126.81153508 115.19721194 127.47902407 117.82518564 128.1875 120.4609375 C128.40341797 121.28005615 128.61933594 122.0991748 128.84179688 122.94311523 C129.25662049 124.51516749 129.67878717 126.08531789 130.11132812 127.65258789 C134.25483937 143.63874723 135.48498434 159.88437773 135.33618164 176.33935547 C135.31244493 179.13147775 135.3156768 181.92264468 135.32226562 184.71484375 C135.296751 201.50954772 134.09800791 217.68190015 129.57080078 233.89746094 C128.95508337 236.16544998 128.39392658 238.44276154 127.83984375 240.7265625 C125.3977302 250.66172741 122.31030939 259.71988034 118 269 C117.54109375 270.11503906 117.0821875 271.23007812 116.609375 272.37890625 C104.56520075 299.47829831 83.22851774 322.69756316 58 338 C57.41412109 338.35690918 56.82824219 338.71381836 56.22460938 339.08154297 C45.90986966 345.24318181 34.86471938 349.27997761 23.51879883 353.13769531 C21.9182185 353.68565012 20.32335366 354.25083146 18.73706055 354.83886719 C12.7609493 356.9984089 6.85796944 357.88485129 0.5625 358.625 C-1.39490943 358.86411174 -3.35196427 359.10615021 -5.30859375 359.3515625 C-6.16251709 359.45291504 -7.01644043 359.55426758 -7.89624023 359.65869141 C-10.05015767 359.90082676 -10.05015767 359.90082676 -12 361 C-27.91224766 363.36928688 -51.41538013 365.45109424 -66.75 360.02734375 C-70.11774732 358.96277939 -73.17749711 358.57718799 -76.67285156 358.21630859 C-112.34160046 354.3574879 -146.64167676 334.89443739 -169.75 307.625 C-174.50255036 301.56262199 -178.75758377 295.16488631 -182.91455078 288.68505859 C-183.82215574 287.27608662 -184.75042614 285.88045473 -185.68359375 284.48828125 C-190.51827632 276.98076604 -193.72780435 268.64198512 -197.03100586 260.37768555 C-197.65934788 258.83588083 -198.31501259 257.30482363 -199.00219727 255.78833008 C-202.21916315 248.45893816 -203.72554657 240.82238637 -205.23754883 233.00610352 C-205.68510363 230.69984855 -206.15095359 228.39784775 -206.61914062 226.09570312 C-212.83264035 195.01587155 -212.61974657 159.98148597 -206 129 C-205.80744629 128.07380859 -205.61489258 127.14761719 -205.41650391 126.19335938 C-203.01746798 114.94574898 -199.56009979 104.54675485 -195 94 C-194.60039063 92.97777344 -194.20078125 91.95554687 -193.7890625 90.90234375 C-185.57743419 69.98749178 -171.35137646 50.28372979 -154 36 C-152.84177734 35.02740234 -152.84177734 35.02740234 -151.66015625 34.03515625 C-145.73531089 29.15862476 -139.56228081 24.96789072 -133 21 C-132.00613281 20.38898438 -131.01226563 19.77796875 -129.98828125 19.1484375 C-123.81819617 15.43532612 -117.77080505 12.4260514 -111 10 C-109.73155369 9.52271211 -108.46334333 9.04479687 -107.1953125 8.56640625 C-97.28567886 4.8838974 -87.3835814 1.99231498 -77 0 C-76.23252441 -0.15098145 -75.46504883 -0.30196289 -74.67431641 -0.45751953 C-50.76710747 -4.95741449 -23.77389636 -5.31598988 0 0 Z " fill="#010101" transform="translate(948,141)"/>
<path d="M0 0 C1.0300264 -0.01257339 2.0600528 -0.02514679 3.12129211 -0.0381012 C45.40634685 -0.45488991 45.40634685 -0.45488991 64.0625 5.2734375 C64.96516602 5.53576172 65.86783203 5.79808594 66.79785156 6.06835938 C84.75793144 11.34440961 101.76359403 18.41525965 117.0625 29.2734375 C118.62484375 30.36011719 118.62484375 30.36011719 120.21875 31.46875 C155.51296131 57.24051321 176.16238556 96.75921269 182.875 139.4609375 C183.32473904 142.39348248 183.71591045 145.32694977 184.0625 148.2734375 C184.15748779 149.05356201 184.25247559 149.83368652 184.3503418 150.63745117 C185.29650639 159.47589001 185.2618644 168.33340011 185.25 177.2109375 C185.24939575 178.04370209 185.2487915 178.87646667 185.24816895 179.73446655 C185.16442847 222.45691439 185.16442847 222.45691439 179.0625 242.2734375 C178.81870605 243.08296875 178.57491211 243.8925 178.32373047 244.7265625 C170.6643121 269.82278062 159.7443957 291.02966238 143.0625 311.2734375 C142.63098633 311.80573975 142.19947266 312.33804199 141.75488281 312.88647461 C138.21098083 317.22245612 134.33926934 320.69118626 130.0625 324.2734375 C129.23621094 324.98757813 128.40992188 325.70171875 127.55859375 326.4375 C110.04606959 341.2734375 110.04606959 341.2734375 104.0625 341.2734375 C104.0625 341.9334375 104.0625 342.5934375 104.0625 343.2734375 C103.0725 343.6859375 102.0825 344.0984375 101.0625 344.5234375 C98.42868476 345.64521725 95.89023967 346.86626866 93.35546875 348.1953125 C89.14434964 350.31206925 84.85800582 351.84051327 80.375 353.2734375 C79.58754395 353.52834961 78.80008789 353.78326172 77.98876953 354.04589844 C76.40856175 354.5560164 74.82752322 355.06356912 73.24560547 355.56835938 C71.34519463 356.18213554 69.45478408 356.82670734 67.56640625 357.4765625 C60.24256135 359.92698751 53.1420952 361.0918461 45.49609375 361.87890625 C42.29138056 362.16108408 42.29138056 362.16108408 40.15400696 362.7880249 C37.76943307 363.34145467 35.6126373 363.41495042 33.16479492 363.43457031 C32.19245407 363.44417786 31.22011322 363.4537854 30.2183075 363.46368408 C29.17044571 363.46793396 28.12258392 363.47218384 27.04296875 363.4765625 C25.95220535 363.48226257 24.86144196 363.48796265 23.73762512 363.49383545 C21.42348193 363.50328426 19.10932529 363.50981896 16.79516602 363.51367188 C13.3013453 363.52329606 9.80813376 363.55428691 6.31445312 363.5859375 C-5.58852701 363.64263511 -16.34966372 363.1159391 -27.9375 360.2734375 C-29.99591206 359.93815372 -32.0571692 359.6197969 -34.12109375 359.3203125 C-40.29633078 358.31573838 -46.08496164 356.53217379 -52 354.5234375 C-53.49756836 354.04003906 -53.49756836 354.04003906 -55.02539062 353.546875 C-61.23012993 351.46923355 -66.79209557 348.8804402 -72.47314453 345.63964844 C-74.51254651 344.50902693 -76.48278733 343.56882068 -78.64453125 342.7109375 C-82.64033811 340.96662324 -86.05365457 338.75482686 -89.625 336.2734375 C-90.32125488 335.79140869 -91.01750977 335.30937988 -91.73486328 334.81274414 C-98.3388818 330.14569228 -104.15938066 324.91082901 -109.9375 319.2734375 C-111.19433594 318.12681641 -111.19433594 318.12681641 -112.4765625 316.95703125 C-128.75566448 301.6856832 -140.69049563 280.19500136 -147.9375 259.2734375 C-148.65486328 257.58541016 -148.65486328 257.58541016 -149.38671875 255.86328125 C-158.47865877 233.87287064 -160.12533318 206.96707597 -160.12280273 183.42382812 C-160.1249763 181.17298071 -160.14316441 178.92263547 -160.16210938 176.671875 C-160.20237429 166.39793791 -159.36080074 156.44332534 -157.9375 146.2734375 C-157.79143311 145.18675781 -157.64536621 144.10007812 -157.49487305 142.98046875 C-155.61770416 129.53787211 -152.80786572 116.94364404 -147.9375 104.2734375 C-147.68178223 103.5942627 -147.42606445 102.91508789 -147.16259766 102.21533203 C-132.67880672 63.90188379 -106.25770025 33.65413224 -69.15234375 15.7109375 C-57.71978432 10.59893037 -46.14051806 7.01513865 -33.9375 4.2734375 C-32.68324219 3.9846875 -31.42898438 3.6959375 -30.13671875 3.3984375 C-20.02320199 1.13891926 -10.35422761 0.11510742 0 0 Z " fill="#010101" transform="translate(537.9375,138.7265625)"/>
<path d="M0 0 C29.37 0 58.74 0 89 0 C89.01981934 12.07529297 89.03963867 24.15058594 89.06005859 36.59179688 C89.12484879 75.21601119 89.19938012 113.8402012 89.28005161 152.46438548 C89.29257067 158.46258496 89.30500342 164.46078461 89.31738281 170.45898438 C89.31984881 171.6531318 89.3223148 172.84727923 89.32485552 174.07761294 C89.36459303 193.42004794 89.39733599 212.7624888 89.42749982 232.10494083 C89.45859982 251.94801481 89.49720302 271.79106393 89.54279006 291.63410997 C89.57068883 303.88101984 89.59271587 316.12791149 89.60726251 328.37484461 C89.61779425 336.76988549 89.63560573 345.16489113 89.65916704 353.55990547 C89.6725504 358.4053441 89.68269982 363.25073329 89.68421364 368.09619141 C89.68567052 372.53274244 89.69627398 376.96917437 89.71413441 381.40568882 C89.71898214 383.01012068 89.720481 384.6145669 89.71827881 386.21900457 C89.70592464 396.98814189 90.01592422 406.67065963 96 416 C101.2748153 421.2748153 106.36634926 423.13398318 113.69970703 423.25097656 C119.94943075 423.30807084 119.94943075 423.30807084 126 422 C127.72795352 421.93197033 129.45835365 421.91504355 131.1875 421.9375 C132.08855469 421.94652344 132.98960937 421.95554687 133.91796875 421.96484375 C134.94857422 421.98224609 134.94857422 421.98224609 136 422 C138.15272322 436.50665493 140.19079166 451.02395657 141.98254395 465.57962036 C142.15953913 467.0159189 142.33814457 468.45202001 142.51843262 469.88790894 C143.40074668 476.93829753 144.25551061 483.88220452 144 491 C138.74677123 494.04408952 133.64456165 495.0768916 127.75 496.125 C126.85925781 496.29386719 125.96851563 496.46273438 125.05078125 496.63671875 C95.53955581 502.07637859 63.87077904 500.45200575 38 484 C34.8583629 481.81451332 31.90271008 479.49278537 29 477 C28.40703125 476.50242187 27.8140625 476.00484375 27.203125 475.4921875 C8.30965567 458.24539669 0.90556575 429.29143362 -0.27317464 404.57264197 C-0.40591644 400.11083722 -0.38691644 395.65113758 -0.36076355 391.1879425 C-0.36207615 389.48449964 -0.36471087 387.78105739 -0.36853105 386.0776183 C-0.37515887 381.4572222 -0.36335133 376.83703938 -0.34819686 372.21667039 C-0.33512787 367.21150495 -0.33963357 362.2063496 -0.34190369 357.20117188 C-0.34346962 348.54941822 -0.33413198 339.89773294 -0.31719017 331.24599648 C-0.29271185 318.73735887 -0.2849859 306.22875401 -0.2812262 293.72009506 C-0.27467551 273.42104403 -0.25475202 253.12202936 -0.22631836 232.82299805 C-0.1987419 213.11531759 -0.17752591 193.40764705 -0.16479492 173.69995117 C-0.16361267 171.874917 -0.16361267 171.874917 -0.16240653 170.01301346 C-0.15849115 163.90867043 -0.15470009 157.80432734 -0.15097082 151.69998419 C-0.11991799 101.13329049 -0.06463824 50.56666411 0 0 Z " fill="#020202" transform="translate(241,4)"/>
<path d="M0 0 C0.67101746 0.00343414 1.34203491 0.00686829 2.03338623 0.01040649 C16.77677867 0.09919026 30.16211221 0.38638674 43.5625 7.25 C44.38878906 7.65863281 45.21507812 8.06726563 46.06640625 8.48828125 C61.54085345 16.90856633 72.77175224 30.74243852 78.5625 47.25 C78.89894531 48.04148437 79.23539063 48.83296875 79.58203125 49.6484375 C83.21390649 58.49008134 84.37095307 67.82594698 85.5625 77.25 C85.65893799 77.96679932 85.75537598 78.68359863 85.85473633 79.42211914 C89.64415685 111.29501389 88.65807169 147.52821439 73.5625 176.25 C73.03398438 177.2915625 72.50546875 178.333125 71.9609375 179.40625 C62.37887737 196.75031414 47.19628851 206.04232054 28.6640625 211.40234375 C27.64054688 211.68207031 26.61703125 211.96179688 25.5625 212.25 C24.76585937 212.47816406 23.96921875 212.70632813 23.1484375 212.94140625 C3.9384425 217.66138784 -20.36084657 214.13715052 -37.5 204.5625 C-54.8369739 193.56229979 -65.17615709 177.13000067 -70.625 157.6875 C-70.86307373 156.84461426 -71.10114746 156.00172852 -71.34643555 155.13330078 C-75.47027272 139.51966982 -76.93748537 124.06193762 -76.82861328 107.95166016 C-76.81246939 105.11963068 -76.82860372 102.28901919 -76.84765625 99.45703125 C-76.86096288 88.06092015 -75.86747065 77.38034823 -73.4375 66.25 C-73.24414062 65.3125293 -73.05078125 64.37505859 -72.8515625 63.40917969 C-68.1286242 41.47237416 -57.94733492 22.97329906 -39.1875 9.875 C-36.62696561 8.36195695 -34.20217449 7.32469542 -31.4375 6.25 C-30.23480469 5.755 -30.23480469 5.755 -29.0078125 5.25 C-28.20085938 4.92 -27.39390625 4.59 -26.5625 4.25 C-25.35980469 3.755 -25.35980469 3.755 -24.1328125 3.25 C-23.24335937 2.92 -22.35390625 2.59 -21.4375 2.25 C-19.99310547 1.70085937 -19.99310547 1.70085937 -18.51953125 1.140625 C-12.5312167 -0.51110048 -6.15493942 -0.04432647 0 0 Z " fill="#FDFDFD" transform="translate(545.4375,213.75)"/>
<path d="M0 0 C2.14573911 0.01618315 4.28961761 -0.00000493 6.43530273 -0.01904297 C25.84365471 -0.05128554 43.75235763 7.27744667 57.87866211 20.69970703 C81.41158814 45.4607824 83.2632415 82.351334 82.68597412 114.6566925 C82.21474135 133.07246409 80.15091186 151.51286795 72.44897461 168.39111328 C72.1125293 169.41720703 71.77608398 170.44330078 71.42944336 171.50048828 C67.21889678 183.91405189 57.24772249 195.24594177 46.44897461 202.39111328 C45.67553711 202.91318359 44.90209961 203.43525391 44.10522461 203.97314453 C25.05924034 215.58296519 -1.3965153 217.34587617 -22.67602539 212.32861328 C-40.93279402 207.6515528 -55.36696949 196.75076957 -65.61352539 180.89111328 C-68.89864051 175.22803279 -71.06467313 169.17500686 -73.25415039 163.02783203 C-73.98106611 160.98940272 -74.7380435 158.95915728 -75.59790039 156.97314453 C-86.82819373 126.55009577 -84.4233856 78.10734821 -72.55102539 48.39111328 C-72.15915039 47.33794922 -71.76727539 46.28478516 -71.36352539 45.19970703 C-64.58922497 27.75142668 -52.946893 14.56582795 -36.12915039 6.18408203 C-24.51781433 1.11835208 -12.49710285 -0.11187582 0 0 Z " fill="#FDFDFD" transform="translate(909.551025390625,213.60888671875)"/>
<path d="M0 0 C0.99 -0.01224609 1.98 -0.02449219 3 -0.03710938 C9.16373875 -0.04930675 14.69068134 0.53098774 20.625 2.1875 C21.71772217 2.48346069 21.71772217 2.48346069 22.83251953 2.78540039 C33.09777869 5.68949205 41.42170105 9.16403254 49.625 16.1875 C50.31464844 16.69539063 51.00429687 17.20328125 51.71484375 17.7265625 C61.81756168 25.52866149 68.5852524 38.33239453 72.625 50.1875 C72.98078125 51.18136719 73.3365625 52.17523438 73.703125 53.19921875 C83.15923014 82.44963353 83.0867309 121.1909526 76.625 151.1875 C76.295 151.5175 75.965 151.8475 75.625 152.1875 C75.356875 153.445625 75.08875 154.70375 74.8125 156 C70.54422078 175.54748164 60.43543661 192.57512224 43.875 204.1015625 C36.49222267 208.71579833 29.06697129 211.21052337 20.625 213.1875 C19.62533203 213.45240234 19.62533203 213.45240234 18.60546875 213.72265625 C3.73869108 217.45267215 -13.05161793 216.43825905 -27.375 211.1875 C-28.426875 210.82527344 -29.47875 210.46304688 -30.5625 210.08984375 C-50.8517711 202.45548792 -62.73067991 186.3706861 -71.51025391 167.27075195 C-85.04586285 134.66223949 -85.9325941 85.46229743 -73.5625 52.25 C-72.54935503 49.87417505 -71.48918633 47.5176493 -70.375 45.1875 C-69.83875 44.04539062 -69.3025 42.90328125 -68.75 41.7265625 C-62.5571922 29.42695811 -54.30499853 20.44954613 -43.375 12.1875 C-42.69050781 11.61 -42.00601562 11.0325 -41.30078125 10.4375 C-39.375 9.1875 -39.375 9.1875 -35.375 9.1875 C-35.375 8.5275 -35.375 7.8675 -35.375 7.1875 C-32.69031083 6.19999341 -30.00266735 5.22237645 -27.3125 4.25 C-26.56033203 3.97220703 -25.80816406 3.69441406 -25.03320312 3.40820312 C-16.68509927 0.40866797 -8.80644124 0.00568892 0 0 Z " fill="#FDFDFD" transform="translate(1284.375,212.8125)"/>
<path d="M0 0 C0.89460938 -0.00386719 1.78921875 -0.00773438 2.7109375 -0.01171875 C13.14302725 0.00344417 21.83686002 1.42137947 31.625 5.125 C32.53378906 5.46273437 33.44257812 5.80046875 34.37890625 6.1484375 C51.87333061 13.32955492 64.20076113 27.25493376 71.515625 44.453125 C75.95101604 55.46318176 78.35738185 66.34753992 79.625 78.125 C79.7178125 78.9392041 79.810625 79.7534082 79.90625 80.59228516 C80.73254569 88.55275886 80.86708706 96.50176335 80.875 104.5 C80.87600708 105.21177399 80.87701416 105.92354797 80.87805176 106.65689087 C80.86817371 117.10016694 80.41435281 127.41485838 79.375 137.8125 C79.26575195 138.94929199 79.15650391 140.08608398 79.04394531 141.25732422 C77.71697342 153.08687812 74.54638309 164.24560424 69.3125 174.9375 C68.91861084 175.75009277 68.52472168 176.56268555 68.11889648 177.39990234 C60.62044734 192.48796718 48.18295434 204.71386346 32.06640625 210.375 C28.59933043 211.390118 25.14230312 212.30130304 21.625 213.125 C20.9542041 213.30015137 20.2834082 213.47530273 19.59228516 213.65576172 C-0.05323338 218.53100411 -22.00620998 215.51274404 -39.5 205.375 C-55.98107154 194.08951174 -64.75226701 180.17468381 -72.375 162.125 C-72.88933594 160.95453125 -73.40367188 159.7840625 -73.93359375 158.578125 C-76.14816145 152.52507004 -76.78261543 146.11493196 -77.5625 139.75 C-77.64838379 139.05847839 -77.73426758 138.36695679 -77.82275391 137.65447998 C-81.47729894 107.47265246 -82.27144097 74.25419371 -69.375 46.125 C-68.86195312 44.93003906 -68.34890625 43.73507812 -67.8203125 42.50390625 C-59.46279337 24.249325 -45.14090116 11.09539903 -26.33203125 3.97265625 C-17.45743565 0.87481605 -9.3468469 -0.04005792 0 0 Z " fill="#FDFDFD" transform="translate(1655.375,212.875)"/>
</svg>
